<svg xmlns="http://www.w3.org/2000/svg" xmlns:xlink="http://www.w3.org/1999/xlink" version="1.1" x="0px" y="0px" viewBox="0 0 90 112.5" enable-background="new 0 0 90 90" xml:space="preserve"><path d="M34.439,62.678l-0.998-3.798h40.196c1.578,0,2.96-1.057,3.374-2.58l8.392-30.885c0.287-1.05,0.066-2.174-0.596-3.04  c-0.662-0.865-1.69-1.373-2.778-1.373H23.484l-2.161-8.219c-0.404-1.536-1.793-2.607-3.382-2.607H8.415  c-1.931,0-3.496,1.565-3.496,3.496s1.565,3.496,3.496,3.496h6.83l12.262,46.647c-2.428,1.57-4.039,4.296-4.039,7.403  c0,4.869,3.947,8.817,8.817,8.817c4.695,0,8.522-3.673,8.791-8.301H60.14c0.024,4.849,3.96,8.773,8.814,8.773  c4.869,0,8.817-3.947,8.817-8.817s-3.947-8.817-8.817-8.817c-2.043,0-3.918,0.701-5.413,1.868H38.251  C37.188,63.761,35.886,63.042,34.439,62.678z M57.274,42.739l-2.039,9.148h-7.099l-2.306-9.148H57.274z M44.42,37.145l-2.307-9.15  H60.56l-2.039,9.15H44.42z M42.367,51.887H31.955l-2.486-9.148H40.06L42.367,51.887z M60.967,51.887l2.039-9.148h10.443  l-2.486,9.148H60.967z M74.969,37.145H64.253l2.039-9.15h11.163L74.969,37.145z M36.343,27.995l2.307,9.15H27.949l-2.486-9.15  H36.343z"/></svg>